<?xml version="1.0" encoding="UTF-8"?>
<svg id="Layer_2" data-name="Layer 2" xmlns="http://www.w3.org/2000/svg" viewBox="0 0 629.4 204.66">
  <defs>
    <style>
      .cls-1 {
        fill: #ed2427;
        fill-rule: evenodd;
        stroke-width: 0px;
      }
    </style>
  </defs>
  <g id="Layer_3" data-name="Layer 3">
    <g>
      <path class="cls-1" d="M247.3,8.46c-1.6,5.5-1.4,6.2,1.7,6.9,15.9,3.6,21.2,7,21.2,13.6,0,4.4-31.4,142.5-33.6,147.8-3.6,8.5-9.6,12.1-21.7,12.8-9.5.5-9.9.8-11,7l-.7,3.2,90.7-.2,90.7-.3,1.9-6.5c1.1-3.6,5-17,8.7-29.8l6.7-23.2h-9.4l-10.5,13.7c-13.7,18-18.6,23.4-25.8,28.2-8.1,5.4-15.4,6.6-40,6.6q-33.2,0-22.5-47.2c3.6-15.8,7-30.5,7.6-32.6l1-3.7h12.8c25.2,0,31.7,5.2,33.6,26.7l.7,8.3h9.4l8.9-38.3c4.9-21,9.1-39,9.3-40,.4-1.4-.3-1.7-4.6-1.7h-5.1l-4.1,7.8c-8.6,16.6-17.9,23.6-33.6,25.2-13.5,1.4-24.4,1.3-24.4-.3,0-1,10.8-49,16.5-73.5l.6-2.4,25.2.4c28,.4,29.6.7,35.8,7.1,6.3,6.5,12.1,17.8,14.3,27.9.6,2.6,1,2.8,5.6,2.8,2.8,0,5-.2,5-.4s2.5-11.3,5.5-24.7c3-13.3,5.5-24.4,5.5-24.6s-38.5-.3-85.5-.3h-85.4l-1,3.7Z"/>
      <path class="cls-1" d="M43.7,9.36c-.3,2.5-.4,4.8-.2,5.1.3.2,3.3,1.1,6.8,1.9,7.3,1.7,14.3,5.5,16,8.6.6,1.2.9,3.9.6,6.2-.7,4.8-30,133.2-32.4,142-3.2,11.7-11,16.6-26.3,16.6-3.2,0-6.1.3-6.3.7-.3.5-.8,2.7-1.2,5l-.7,4.3h181.1l2-6.8c8-26.8,15.1-51.7,15.1-52.4,0-.4-2-.8-4.4-.8h-4.4l-11.6,15c-12.7,16.4-20.7,24.8-27,28.5-6.4,3.7-16,5-37.6,5-22.8,0-26-.8-28.7-7.2-2-4.8-1.7-6.5,7.4-46.4l6.8-30.1,15,.4c13.6.3,15.5.5,20,2.8,7.2,3.6,10.6,10.5,11.3,23l.5,9.1,5-.3,5.1-.3,8.6-37c4.8-20.4,9-38.2,9.3-39.8q.7-2.7-4.2-2.7h-4.9l-4.8,8.7c-9,16-18.3,22.8-33.3,24.4-9.8,1-23.9,1.1-24.4.1-.2-.4,3.5-17.6,8.3-38.2l8.6-37.5h25.5c29,0,29.8.2,36.9,8.3,5,5.7,11.7,18.7,12.6,24.7l.6,4.5h10.4l3.7-16.8c2.1-9.2,4.6-20.4,5.6-25l1.9-8.2H44.4l-.7,4.6Z"/>
      <path class="cls-1" d="M536.8.86c-34.2,3-66.6,22.1-87.8,51.5-16.7,23.3-23.5,45.9-22.5,74.9.4,13.3.8,16.1,3.6,24.6,8,24.6,27.6,42.5,54.7,50,11.9,3.2,38.4,3.8,51.4,1.1,19.4-4,35.7-12.5,50-25.8,6.9-6.5,21-23.6,21-25.5,0-.3-2.1-2-4.6-3.8l-4.5-3.3-11.1,11.6c-20.7,21.9-37.4,30.6-58.3,30.7-15.2,0-26.1-4.5-35.3-14.6-5.6-6.1-10.2-14.9-12.3-23.5-2.1-8.3-1.8-38.8.5-51.5,5.4-29.6,15.8-52.5,31.1-68.2,6.3-6.4,9.7-9,15.5-11.7,19.7-9.3,40.6-6.2,55.1,8.3,9.2,9.2,16.5,26.4,18.7,43.8l.7,5.8h11.9l6.7-31.5c3.8-17.3,7.1-33.2,7.4-35.3l.7-3.7h-5.4c-4.8,0-6.1.5-10.8,4-2.9,2.2-5.5,4-5.7,4s-2.6-1.1-5.3-2.5c-6.9-3.5-22.4-7.4-36-9-12.6-1.6-16.1-1.6-29.4-.4Z"/>
    </g>
  </g>
</svg>