<?xml version="1.0" encoding="UTF-8"?>
<svg id="Layer_2" data-name="Layer 2" xmlns="http://www.w3.org/2000/svg" xmlns:xlink="http://www.w3.org/1999/xlink" viewBox="0 0 866.21 211.86">
  <defs>
    <style>
      .cls-1, .cls-2, .cls-3 {
        stroke-width: 0px;
      }

      .cls-1, .cls-3 {
        fill: #e84908;
      }

      .cls-4 {
        filter: url(#drop-shadow-1);
      }

      .cls-2 {
        fill: #fff;
      }

      .cls-2, .cls-3 {
        fill-rule: evenodd;
      }
    </style>
    <filter id="drop-shadow-1" filterUnits="userSpaceOnUse">
      <feOffset dx="2" dy="2"/>
      <feGaussianBlur result="blur" stdDeviation="5"/>
      <feFlood flood-color="#231815" flood-opacity=".3"/>
      <feComposite in2="blur" operator="in"/>
      <feComposite in="SourceGraphic"/>
    </filter>
  </defs>
  <g id="Layer_2-2" data-name="Layer 2">
    <g>
      <path class="cls-1" d="M172.18,0H39.68C17.77,0,0,17.77,0,39.68v132.49c0,21.92,17.77,39.68,39.68,39.68h132.49c21.92,0,39.68-17.77,39.68-39.68V39.68c0-21.92-17.77-39.68-39.68-39.68"/>
      <g class="cls-4">
        <path class="cls-2" d="M73.32,73.54c-5.69-1.75-11.97-1.72-17.98.5-14.54,5.38-21.97,21.53-16.6,36.07,5.37,14.52,21.48,21.95,36.01,16.62,11.6,14.63,31.7,20.88,50.16,14.05,18.46-6.83,29.67-24.65,28.96-43.31,14.15-5.59,21.3-21.5,16-35.84-5.38-14.54-21.53-21.97-36.07-16.6-5.89,2.18-10.62,6.13-13.8,11.02-8.29-2.02-17.26-1.68-25.86,1.5-8.73,3.23-15.83,8.91-20.83,15.98M110.57,99.8c5.52-2.04,12.54,3.2,15.68,11.69,3.14,8.5,1.22,17.04-4.3,19.08-5.52,2.04-12.54-3.2-15.68-11.69-3.14-8.5-1.22-17.04,4.3-19.08M94.97,108.82c-2.07.77-4.38-.29-5.14-2.37s.29-4.38,2.37-5.14c2.07-.77,4.38.29,5.14,2.37.77,2.07-.29,4.38-2.37,5.14M126.87,97.03c-2.07.77-4.38-.29-5.14-2.37-.77-2.07.29-4.38,2.37-5.14s4.38.29,5.14,2.37c.77,2.07-.29,4.38-2.37,5.14M127.45,57.57c2.27-2.65,5.23-4.78,8.74-6.08,10.98-4.06,23.18,1.55,27.24,12.53,3.19,8.62.41,18-6.25,23.59,4.84-5.65,6.56-13.68,3.79-21.16-4.06-10.98-16.26-16.59-27.24-12.53-2.36.87-4.46,2.12-6.28,3.64M68.32,79.42c-2.38.02-4.79.45-7.14,1.32-10.98,4.06-16.59,16.26-12.53,27.24,2.76,7.47,9.29,12.46,16.64,13.6-8.7.09-16.91-5.23-20.09-13.85-4.06-10.98,1.55-23.18,12.53-27.23,3.51-1.3,7.14-1.61,10.59-1.07"/>
        <path class="cls-2" d="M153.88,97.54c5.04,2.11,8.68,5.35,10.27,9.65,3.32,8.97-3.1,20.23-15.37,29.48l10.79,1.71-6.74,14.55c16.97-12.18,25.75-29.13,20.56-43.17-2.41-6.53-7.54-11.57-14.42-14.92-1.57,1.03-3.27,1.92-5.08,2.63v.06Z"/>
        <path class="cls-2" d="M133.03,163.34c3.4-1.25,6.64-2.69,9.71-4.27l1.99,5.38,11.33-24.46-21.64-3.43,2.7,7.32c-3.06,1.56-6.31,2.98-9.72,4.25-25.2,9.32-49.62,6.09-54.53-7.2-1.6-4.32-.93-9.17,1.56-14.08-1.87.66-3.77,1.11-5.66,1.36-3.04,7.01-3.65,14.16-1.24,20.68,6.94,18.78,36.28,25.26,65.5,14.45"/>
      </g>
      <g>
        <path class="cls-3" d="M250.67,140.38h99.72c10.65,0,16.03-4.82,16.1-14.48v-14.6c.19-10.93-5.17-16.39-16.1-16.39h-76.73v-8.67h92.3v-16.81h-86.77l4.11-8.13h86.93v-16.79h-15.02l3.86-7.03h-23.13l-3.86,7.03h-19.7v-11.31h54.12v-16.95h-54.12v-5.92h-22.19v5.92h-45.73v16.95h32.09c9.1,0,13.64,2.75,13.64,8.28v3.03h-50v16.79h18.6c-2.94,5.78-8.68,11.61-17.21,17.49l-.14,23.98,10.06-7.03v17.09h85.55c4.87,0,7.29,1.74,7.29,5.22v4.42h-93.8l.14,17.91ZM441.2,127v-42.55l9.1-3.03v-21.09l-9.1,2.89v-21.63h9.1v-17.89h-9.1v-13.38h-20.94v13.38h-14.18v17.89h3.71c7.36.37,10.84,4.84,10.46,13.38v15l-14.74,4.14v21.09l14.74-4c.28,19.84,0,30.26-.82,31.27-.82,1.01-2.52,1.55-5.1,1.65h-4.68v16.27h18.2c3.95,0,7.24-1.53,9.9-4.56,2.21-2.75,3.36-5.69,3.45-8.82M505.66,10.89h-22.17v8.11h-27.83v17.91h77.27v-17.91h-27.27v-8.11ZM481.14,48.08h-22.17l11.14,74.38h-12.93v17.91h66.79c7.73,0,11.59-3.46,11.59-10.34v-7.57h-13.52l9.78-74.38h-22.31l-5.92,42.15c-2.19,17.63-4.7,26.42-7.5,26.38-2.8-.05-5.62-8.75-8.46-26.09l-6.49-42.43ZM689.58,88.71h-21.34l10.46,28.26h21.09l-10.2-28.26ZM612.31,88.71l-6.33,27.15h22.31l5.36-27.15h-21.35ZM662.74,32.66v7h19.14c10.37,0,15.66,4.42,15.85,13.24v16.81l-.14,13.07h-34.84v34.72h-22.45v-21.35c0-8.91-4.84-13.38-14.48-13.38h-19.82v-29.06c.07-9.36,5.69-14.06,16.79-14.06h17.51v-2.19c0-3.22-2.73-4.82-8.13-4.82h-28.52V15.71h36.65v-5.52h22.45v5.52h37.59v16.95h-37.59ZM670.84,55.65h-8.11v11.31h13.64v-6.06c0-3.5-1.83-5.24-5.53-5.24M635.04,55.65h-7.71v11.31h12.95v-7.03c0-2.84-1.76-4.28-5.24-4.28M599.92,114.61c.45,3.95,2.42,6.46,5.93,7.57h95.04v7.57c0,7.26-4.28,10.84-12.81,10.74h-76.19c-5.22-.82-9.22-3.53-11.97-8.11,0,5.41-3.67,8.11-11.03,8.11h-10.74V61.44h-7.31v-17.91h15.7c8.82,0,13.28,4.87,13.38,14.62v56.47ZM574.58,23.85c0-3.31,1.22-6.18,3.71-8.63,2.47-2.42,5.41-3.64,8.81-3.64s6.18,1.22,8.68,3.64c2.47,2.44,3.71,5.31,3.71,8.63s-1.25,6.3-3.71,8.75c-2.49,2.42-5.38,3.64-8.68,3.64s-6.35-1.22-8.81-3.64c-2.49-2.45-3.71-5.36-3.71-8.75M852.58,140.38c9.07,0,13.64-3.5,13.64-10.48v-7.71h-65.57V29.35h61.71V11.17h-65.02c-12.95,0-19.37,6.51-19.28,19.56v109.64h74.52ZM757.11,137.06h-20.95l9.24-32.23c4.87-23.13,1.88-36.56-8.96-40.22l-.14-23.41c26.82,7.71,36.65,29.83,29.48,66.39l-8.68,29.48ZM739.76,23.28c0-3.67,1.29-6.75,3.93-9.22,2.61-2.49,5.76-3.74,9.43-3.74s6.54,1.25,9.17,3.74c2.61,2.47,3.93,5.55,3.93,9.22s-1.32,6.79-3.93,9.38c-2.63,2.56-5.66,3.86-9.17,3.86s-6.82-1.29-9.43-3.86c-2.63-2.59-3.93-5.71-3.93-9.38"/>
        <path class="cls-1" d="M257.95,201.67h-11.91v-39.66h11.91v39.66ZM294.94,162.01l-22.71,19.83,22.71,19.83h-14.35l-22.63-19.83,22.63-19.83h14.35Z"/>
        <path class="cls-1" d="M307.36,166.5c1.03-1.38,2.44-2.48,4.22-3.29,1.77-.81,3.7-1.21,5.77-1.21h25.67c2.12,0,4.07.4,5.84,1.21,1.78.81,3.18,1.9,4.22,3.29,1.04,1.38,1.55,2.88,1.55,4.5v21.62c0,1.61-.52,3.12-1.55,4.52-1.03,1.4-2.44,2.51-4.22,3.32-1.78.81-3.72,1.21-5.84,1.21h-25.67c-2.07,0-3.99-.41-5.77-1.24-1.78-.83-3.18-1.93-4.22-3.32-1.04-1.38-1.55-2.88-1.55-4.5v-21.62c0-1.61.52-3.11,1.55-4.5M340.98,194.09c1.16-.9,1.74-1.99,1.74-3.26v-17.99c0-1.3-.58-2.41-1.74-3.31-1.16-.9-2.55-1.35-4.18-1.35h-13.17c-1.68,0-3.1.45-4.25,1.35-1.16.9-1.74,2.01-1.74,3.31v17.99c0,1.27.58,2.35,1.74,3.26,1.16.9,2.58,1.35,4.25,1.35h13.17c1.63,0,3.02-.45,4.18-1.35"/>
        <polygon class="cls-1" points="409.29 201.67 393.02 171.58 380 195.5 394.57 195.5 398.27 201.67 364.84 201.67 386.43 162.01 399.53 162.01 421.13 201.67 409.29 201.67"/>
        <path class="cls-1" d="M469.73,201.67h-20.93c-3.16,0-6.08-.61-8.77-1.84-2.69-1.23-4.81-2.88-6.36-4.96-1.55-2.08-2.33-4.34-2.33-6.8v-26.06h11.91v26.06c0,2.04.92,3.78,2.77,5.22,1.85,1.44,4.08,2.16,6.7,2.16h17.01v6.23Z"/>
        <polygon class="cls-1" points="522.76 201.67 506.49 171.58 493.47 195.5 508.04 195.5 511.74 201.67 478.31 201.67 499.91 162.01 513 162.01 534.6 201.67 522.76 201.67"/>
        <path class="cls-1" d="M643.7,181.49c-1.53,2-3.6,3.56-6.21,4.67l8.51,15.51h-11.84l-7.69-13.89h-18.72v13.89h-11.91v-39.66h33.58c3.01,0,5.78.58,8.32,1.73,2.54,1.15,4.55,2.71,6.03,4.67,1.48,1.96,2.22,4.11,2.22,6.46s-.77,4.63-2.29,6.63M607.75,181.61h17.75c2.37,0,4.4-.65,6.1-1.96,1.7-1.31,2.55-2.9,2.55-4.79s-.85-3.42-2.55-4.73c-1.7-1.3-3.73-1.96-6.1-1.96h-17.75v13.43Z"/>
        <path class="cls-1" d="M674.07,169.16c-1.45.65-2.61,1.55-3.48,2.68-.86,1.13-1.29,2.37-1.29,3.72v3.17h36.99v6.17h-36.99v3.17c0,1.35.43,2.59,1.29,3.72.86,1.13,2.02,2.03,3.48,2.68,1.45.65,3.02.98,4.7.98h27.52v6.23h-31.44c-3.16,0-6.06-.61-8.73-1.84-2.66-1.23-4.77-2.88-6.33-4.96-1.55-2.08-2.33-4.34-2.33-6.8v-12.51c0-2.46.78-4.73,2.33-6.8,1.55-2.07,3.66-3.72,6.33-4.93,2.66-1.21,5.57-1.82,8.73-1.82h31.44v6.17h-27.52c-1.68,0-3.24.33-4.7.98"/>
        <polygon class="cls-1" points="763.24 161.95 775.15 161.95 775.15 201.67 763.24 201.67 763.24 175.84 753.4 187.49 741.64 187.49 731.28 175.56 731.28 201.67 719.37 201.67 719.37 161.95 731.28 161.95 747.48 180.57 763.24 161.95"/>
        <rect class="cls-1" x="788.68" y="161.95" width="11.84" height="39.72"/>
        <polygon class="cls-1" points="860.36 161.95 860.36 168.18 841.87 168.18 841.87 201.67 829.96 201.67 829.96 168.18 811.47 168.18 811.47 161.95 860.36 161.95"/>
      </g>
    </g>
  </g>
</svg>