<?xml version="1.0" encoding="UTF-8"?>
<svg id="Layer_2" data-name="Layer 2" xmlns="http://www.w3.org/2000/svg" viewBox="0 0 1481.89 346.06">
  <defs>
    <style>
      .cls-1 {
        fill: #fd0;
      }

      .cls-1, .cls-2 {
        stroke-width: 0px;
      }

      .cls-2 {
        fill: #fff;
      }
    </style>
  </defs>
  <g id="Layer_1-2" data-name="Layer 1">
    <g>
      <g>
        <path class="cls-1" d="M176.01,304.92c31.65,54.68,83.42,54.68,115.07,0l17.7-30.59L150.37,0H0l176.01,304.92Z"/>
        <path class="cls-1" d="M509.62,187.73c-11.56,19.93-38.78,19.91-50.31-.04L350.79,0h-150.32l176.19,305.02c31.64,54.68,83.31,54.68,114.95,0l117.92-204.28L551.5,0h-150.25l108.37,187.73Z"/>
      </g>
      <g>
        <path class="cls-2" d="M711.4,161.29h30.83l.26-.96c19.02-70.56,26.82-100.68,29.99-119.35,3.08,18.61,10.49,49.18,28.67,119.34l.25.98h31.5L876.75,0h-28.68l-.25.98c-19.06,73.23-26.33,102.88-29.62,121.77-3.83-20.3-12.09-53.8-29.93-121.77l-.25-.97h-29.97l-.25.98c-18.55,72.51-26.32,103.55-29.64,123.71-3.64-19.65-11.81-52.21-30.34-123.72l-.25-.98h-29.78l43.36,160.33.26.96Z"/>
        <path class="cls-2" d="M925.46,163.53c23.3,0,45.35-12.7,54.17-31.62l-21.27-10.81-.45-.05-.4.83c-2.58,5.35-12.02,17.81-31.83,17.81-17.99,0-31.67-11.45-33.77-28.01h91.6l.03-1.27c.56-22.6-5.58-41.15-17.75-53.63-10.56-10.82-25.11-16.54-42.09-16.54s-32.04,6.31-43.01,17.78c-10.86,11.35-16.84,27.01-16.84,44.09,0,36.17,25.33,61.42,61.61,61.42ZM923.7,63.62c16.98,0,29.87,10.85,31.18,26h-62.97c1.93-15.15,15.07-26,31.79-26Z"/>
        <path class="cls-2" d="M1041.46,163.53c29.99,0,48.62-13.94,48.62-36.39,0-26.61-24.19-32.89-43.63-37.94-13.43-3.49-25.03-6.5-25.03-15.03,0-6.86,7.25-11.66,17.62-11.66,11.35,0,19.2,5.99,20.5,15.63l.8,4.88.54-.09,23.85-4.4c0-22.36-19.79-38.07-45.46-38.07s-44.88,14.6-44.88,35.5c0,25.25,23.48,31.54,42.34,36.59,13.65,3.66,25.45,6.81,25.45,15.71,0,7.74-7.6,12.55-19.82,12.55-14.7,0-24.57-6.83-25.78-17.84l-.22-1.8-25.26,4.8c0,24.48,27.42,37.57,50.38,37.57Z"/>
        <path class="cls-2" d="M1111.43,139.34c0,13.35,8.45,24.18,22.44,24.18,17.36,0,22.46-2.23,22.46-2.23v-22.49s-5.21.86-11.54.86c-4.09,0-6.97-2.47-6.97-6.21v-68.04h18.32l-.25-22.72h-18.07V8.94l-26.39,6.61v27.14h-13.77l-.08,22.72h13.85v73.93Z"/>
        <path class="cls-2" d="M1318.3,57.69v-15h-23.23v118.6h27.92l-.23-72.54c.36-7.29,2.81-12.88,7.28-16.61,5.86-4.89,15-6.56,27.13-4.96l1.46.19.25-24.75-1.14-.16c-16.73-2.28-31.87,2.83-39.44,15.22Z"/>
        <path class="cls-2" d="M1434.59,40.23c-16.78,0-32.51,6.69-40.3,19.4v-16.94h-24.17v118.6h28.14v-63.66c0-20.46,10.7-32.67,28.63-32.67,12.26,0,26.87,5.36,26.87,30.88v65.45h28.14v-69.25c0-38.2-24.43-51.81-47.3-51.81Z"/>
        <path class="cls-2" d="M781.75,277.04c0,27.41-12.98,42.5-36.55,42.5s-36.33-15.09-36.33-42.5v-94.5h-28.36v93.83c0,43.64,24.18,69.69,64.69,69.69s64.69-26.05,64.69-69.69v-93.83h-28.14v94.5Z"/>
        <path class="cls-2" d="M891.13,222.76c-16.79,0-32.51,6.69-40.3,19.4v-16.94h-24.17v118.6h28.14v-63.66c0-20.46,10.7-32.67,28.63-32.67,12.26,0,26.87,5.36,26.87,30.88v65.45h28.14v-69.25c0-38.2-24.43-51.81-47.3-51.81Z"/>
        <rect class="cls-2" x="955.86" y="225.22" width="27.92" height="118.6"/>
        <path class="cls-2" d="M969.93,181.51c-9.12,0-16.27,7.03-16.27,16s7.3,15.79,16.27,15.79,16.05-7.08,16.05-15.79-7.2-16-16.05-16Z"/>
        <path class="cls-2" d="M1059.29,222.76c-17.37,0-33.25,6.24-44.71,17.56-11.46,11.32-17.78,26.98-17.78,44.09,0,35.72,26.28,61.65,62.49,61.65s62.71-25.93,62.71-61.65c0-17.13-6.32-32.79-17.8-44.09-11.5-11.32-27.44-17.56-44.9-17.56ZM1059.29,320.43c-20.08,0-35.23-15.49-35.23-36.02s15.15-36.02,35.23-36.02,35.67,15.49,35.67,36.02-15.34,36.02-35.67,36.02Z"/>
        <path class="cls-2" d="M1199.5,222.76c-16.78,0-32.51,6.69-40.3,19.4v-16.94h-24.17v118.6h28.14v-63.66c0-20.46,10.7-32.67,28.63-32.67,12.26,0,26.87,5.36,26.87,30.88v65.45h28.14v-69.25c0-38.2-24.43-51.81-47.3-51.81Z"/>
        <path class="cls-2" d="M1223.18,40.23c-16.76,0-32.04,6.31-43.01,17.78-10.86,11.35-16.84,27.01-16.84,44.09,0,36.17,25.33,61.42,61.61,61.42,23.3,0,45.35-12.7,54.17-31.62l-21.27-10.81-.45-.05-.4.83c-2.58,5.35-12.02,17.81-31.83,17.81-17.99,0-31.67-11.45-33.77-28.01h91.6l.03-1.27c.56-22.6-5.58-41.15-17.76-53.63-10.56-10.82-25.11-16.54-42.09-16.54ZM1191.39,89.62c1.93-15.15,15.07-26,31.79-26s29.87,10.85,31.18,26h-62.97Z"/>
      </g>
    </g>
  </g>
</svg>