<?xml version="1.0" encoding="UTF-8"?>
<svg id="Layer_2" data-name="Layer 2" xmlns="http://www.w3.org/2000/svg" version="1.1" viewBox="0 0 1481.9 346.1">
  <defs>
    <style>
      .cls-1 {
        fill: #000;
      }

      .cls-1, .cls-2 {
        stroke-width: 0px;
      }

      .cls-2 {
        fill: #fd0;
      }
    </style>
  </defs>
  <g id="Layer_1-2" data-name="Layer 1-2">
    <g>
      <g>
        <path class="cls-2" d="M176,304.9c31.6,54.7,83.4,54.7,115.1,0l17.7-30.6L150.4,0H0l176,304.9Z"/>
        <path class="cls-2" d="M509.6,187.7c-11.6,19.9-38.8,19.9-50.3,0L350.8,0h-150.3l176.2,305c31.6,54.7,83.3,54.7,114.9,0l117.9-204.3L551.5,0h-150.2l108.4,187.7Z"/>
      </g>
      <g>
        <path class="cls-1" d="M711.4,161.3h30.8l.3-1c19-70.6,26.8-100.7,30-119.3,3.1,18.6,10.5,49.2,28.7,119.3l.2,1h31.5L876.8,0h-28.7l-.2,1c-19.1,73.2-26.3,102.9-29.6,121.8-3.8-20.3-12.1-53.8-29.9-121.8l-.2-1h-30l-.2,1c-18.5,72.5-26.3,103.6-29.6,123.7-3.6-19.7-11.8-52.2-30.3-123.7L697.6,0h-29.8l43.4,160.3.3,1h0Z"/>
        <path class="cls-1" d="M925.5,163.5c23.3,0,45.3-12.7,54.2-31.6l-21.3-10.8h-.5c0,0-.4.8-.4.8-2.6,5.3-12,17.8-31.8,17.8s-31.7-11.4-33.8-28h91.6v-1.3c.6-22.6-5.5-41.2-17.7-53.6-10.6-10.8-25.1-16.5-42.1-16.5s-32,6.3-43,17.8c-10.9,11.3-16.8,27-16.8,44.1,0,36.2,25.3,61.4,61.6,61.4h0ZM923.7,63.6c17,0,29.9,10.9,31.2,26h-63c1.9-15.2,15.1-26,31.8-26Z"/>
        <path class="cls-1" d="M1041.5,163.5c30,0,48.6-13.9,48.6-36.4s-24.2-32.9-43.6-37.9c-13.4-3.5-25-6.5-25-15s7.2-11.7,17.6-11.7,19.2,6,20.5,15.6l.8,4.9h.5c0,0,23.8-4.5,23.8-4.5,0-22.4-19.8-38.1-45.5-38.1s-44.9,14.6-44.9,35.5,23.5,31.5,42.3,36.6c13.7,3.7,25.4,6.8,25.4,15.7s-7.6,12.6-19.8,12.6-24.6-6.8-25.8-17.8l-.2-1.8-25.3,4.8c0,24.5,27.4,37.6,50.4,37.6h0Z"/>
        <path class="cls-1" d="M1111.4,139.3c0,13.4,8.4,24.2,22.4,24.2s22.5-2.2,22.5-2.2v-22.5s-5.2.9-11.5.9-7-2.5-7-6.2v-68h18.3l-.2-22.7h-18.1V8.9l-26.4,6.6v27.1h-13.8v22.7c0,0,13.8,0,13.8,0v73.9h0Z"/>
        <path class="cls-1" d="M1318.3,57.7v-15h-23.2v118.6h27.9l-.2-72.5c.4-7.3,2.8-12.9,7.3-16.6,5.9-4.9,15-6.6,27.1-5l1.5.2.2-24.8-1.1-.2c-16.7-2.3-31.9,2.8-39.4,15.2h0Z"/>
        <path class="cls-1" d="M1434.6,40.2c-16.8,0-32.5,6.7-40.3,19.4v-16.9h-24.2v118.6h28.1v-63.7c0-20.5,10.7-32.7,28.6-32.7s26.9,5.4,26.9,30.9v65.4h28.1v-69.2c0-38.2-24.4-51.8-47.3-51.8h0Z"/>
        <path class="cls-1" d="M781.8,277c0,27.4-13,42.5-36.5,42.5s-36.3-15.1-36.3-42.5v-94.5h-28.4v93.8c0,43.6,24.2,69.7,64.7,69.7s64.7-26,64.7-69.7v-93.8h-28.1v94.5h0Z"/>
        <path class="cls-1" d="M891.1,222.8c-16.8,0-32.5,6.7-40.3,19.4v-16.9h-24.2v118.6h28.1v-63.7c0-20.5,10.7-32.7,28.6-32.7s26.9,5.4,26.9,30.9v65.4h28.1v-69.2c0-38.2-24.4-51.8-47.3-51.8h0Z"/>
        <rect class="cls-1" x="955.9" y="225.2" width="27.9" height="118.6"/>
        <path class="cls-1" d="M969.9,181.5c-9.1,0-16.3,7-16.3,16s7.3,15.8,16.3,15.8,16-7.1,16-15.8-7.2-16-16-16Z"/>
        <path class="cls-1" d="M1059.3,222.8c-17.4,0-33.2,6.2-44.7,17.6s-17.8,27-17.8,44.1c0,35.7,26.3,61.6,62.5,61.6s62.7-25.9,62.7-61.6-6.3-32.8-17.8-44.1c-11.5-11.3-27.4-17.6-44.9-17.6h0ZM1059.3,320.4c-20.1,0-35.2-15.5-35.2-36s15.2-36,35.2-36,35.7,15.5,35.7,36-15.3,36-35.7,36Z"/>
        <path class="cls-1" d="M1199.5,222.8c-16.8,0-32.5,6.7-40.3,19.4v-16.9h-24.2v118.6h28.1v-63.7c0-20.5,10.7-32.7,28.6-32.7s26.9,5.4,26.9,30.9v65.4h28.1v-69.2c0-38.2-24.4-51.8-47.3-51.8h0Z"/>
        <path class="cls-1" d="M1223.2,40.2c-16.8,0-32,6.3-43,17.8-10.9,11.3-16.8,27-16.8,44.1,0,36.2,25.3,61.4,61.6,61.4s45.3-12.7,54.2-31.6l-21.3-10.8h-.4c0,0-.4.8-.4.8-2.6,5.3-12,17.8-31.8,17.8s-31.7-11.4-33.8-28h91.6v-1.3c.6-22.6-5.5-41.2-17.7-53.6-10.6-10.8-25.1-16.5-42.1-16.5h0ZM1191.4,89.6c1.9-15.2,15.1-26,31.8-26s29.9,10.8,31.2,26h-63Z"/>
      </g>
    </g>
  </g>
</svg>